# xmcd
#
# Track frame offsets: 
#        150
#        13797
#        32472
#        47701
#        65018
#        83272
#        108050
#        124608
#        141799
#        160831
#        180152
#        196137
#        212542
#        226436
#        241742
#        257969
#        274549
#        296950
#        312608
#        326108
#        343206
#
# Disc length: 4777 seconds
#
# Revision: 1
# Processed by: cddbd v1.5.2PL0 Copyright (c) Steve Scherf et al.
# Submitted via: ExactAudioCopy v1.3
#
DISCID=2712a715
DTITLE=Various Artist - Akella Presents - vol.57 - Country-Blues  CD1
DYEAR=2015
DGENRE=Blues
TTITLE0=Dixie Tabernacle - Any Way The Wind Blows
TTITLE1=Jeremy Spencer - Got to Keep Movin'
TTITLE2=Lance Canales and The Flood - Train Station Blues
TTITLE3=Christine Lakeland - Who Knows
TTITLE4=Willie May - Dont Know Where
TTITLE5=Mark Knopfler - Broken Bones
TTITLE6=The Handsome Family - A Thousand Diamond Rings
TTITLE7=Greg Pearle and John Illsley - Secret Garden
TTITLE8=Pepe Ahlqvis - Muddy Boots
TTITLE9=J.J. Cale and Eric Clapton - It's Easy
TTITLE10=Russell Morris - Big Red
TTITLE11=Keb' Mo' - Talk
TTITLE12=James Taylor - Diamond Joe
TTITLE13=Ray Bonneville - Under The Bridge
TTITLE14=The Kentucky Headhunters - Dizzie Miss Daisy
TTITLE15=Cumberland River Band - Justified
TTITLE16=Kenny Neal - You Care
TTITLE17=Mezcaleros - Little Jimmy
TTITLE18=Hank Shizzoe - Small Time
TTITLE19=Andy J. Forest - Eurostar
TTITLE20=Ewen Carruthers - Just Passing Through
EXTD=
EXTT0=
EXTT1=
EXTT2=
EXTT3=
EXTT4=
EXTT5=
EXTT6=
EXTT7=
EXTT8=
EXTT9=
EXTT10=
EXTT11=
EXTT12=
EXTT13=
EXTT14=
EXTT15=
EXTT16=
EXTT17=
EXTT18=
EXTT19=
EXTT20=
PLAYORDER=
